<mxfile host="app.diagrams.net" agent="Mozilla/5.0 (Windows NT 10.0; Win64; x64) AppleWebKit/537.36 (KHTML, like Gecko) Chrome/123.0.0.0 Safari/537.36" version="24.8.4">
  <diagram name="Page-1" id="bakE9OSh0r9CVlt-W0tr">
    <mxGraphModel dx="1039" dy="397" grid="1" gridSize="10" guides="1" tooltips="1" connect="1" arrows="1" fold="1" page="1" pageScale="1" pageWidth="1169" pageHeight="827" math="0" shadow="0">
      <root>
        <mxCell id="0" />
        <mxCell id="1" parent="0" />
        <mxCell id="00SEoHANSZacNniakZJs-1" value="User Interface" style="whiteSpace=wrap;strokeWidth=2;" vertex="1" parent="1">
          <mxGeometry x="62" y="1417" width="989" height="198" as="geometry" />
        </mxCell>
        <mxCell id="00SEoHANSZacNniakZJs-2" value="Data Storage" style="whiteSpace=wrap;strokeWidth=2;" vertex="1" parent="1">
          <mxGeometry x="838" y="1018" width="360" height="349" as="geometry" />
        </mxCell>
        <mxCell id="00SEoHANSZacNniakZJs-3" value="Cost Calculation &amp; Billing" style="whiteSpace=wrap;strokeWidth=2;" vertex="1" parent="1">
          <mxGeometry x="20" y="894" width="546" height="337" as="geometry" />
        </mxCell>
        <mxCell id="00SEoHANSZacNniakZJs-4" value="Local Processing" style="whiteSpace=wrap;strokeWidth=2;" vertex="1" parent="1">
          <mxGeometry x="154" y="356" width="303" height="465" as="geometry" />
        </mxCell>
        <mxCell id="00SEoHANSZacNniakZJs-5" value="Real-time Data Collection" style="whiteSpace=wrap;strokeWidth=2;" vertex="1" parent="1">
          <mxGeometry x="477" y="20" width="594" height="470" as="geometry" />
        </mxCell>
        <mxCell id="00SEoHANSZacNniakZJs-6" value="1.1 Metrics Collector&#xa;        - cAdvisor metrics&#xa;        - 30s interval&#xa;        - Resource usage data" style="whiteSpace=wrap;strokeWidth=2;" vertex="1" parent="1">
          <mxGeometry x="592" y="45" width="210" height="49" as="geometry" />
        </mxCell>
        <mxCell id="00SEoHANSZacNniakZJs-7" value="1.2 K8s Metadata&#xa;        - Namespaces/Labels&#xa;        - 300s interval&#xa;        - Cost allocation rules" style="whiteSpace=wrap;strokeWidth=2;" vertex="1" parent="1">
          <mxGeometry x="852" y="45" width="184" height="49" as="geometry" />
        </mxCell>
        <mxCell id="00SEoHANSZacNniakZJs-8" value="Data&#xa;        Validation" style="rhombus;strokeWidth=2;whiteSpace=wrap;" vertex="1" parent="1">
          <mxGeometry x="513" y="144" width="139" height="139" as="geometry" />
        </mxCell>
        <mxCell id="00SEoHANSZacNniakZJs-9" value="Retry Logic&#xa;        Max 2 attempts&#xa;        30s timeout" style="whiteSpace=wrap;strokeWidth=2;" vertex="1" parent="1">
          <mxGeometry x="601" y="381" width="172" height="84" as="geometry" />
        </mxCell>
        <mxCell id="00SEoHANSZacNniakZJs-10" value="Local Cache&#xa;        - 3h hot data&#xa;        - 24h backup&#xa;        - Compression" style="shape=cylinder3;boundedLbl=1;backgroundOutline=1;size=10;strokeWidth=2;whiteSpace=wrap;" vertex="1" parent="1">
          <mxGeometry x="295" y="390" width="101" height="68" as="geometry" />
        </mxCell>
        <mxCell id="00SEoHANSZacNniakZJs-11" value="2. Aggregate Processor&#xa;        - 10-min windows&#xa;        - Resource aggregation&#xa;        - Namespace attribution" style="whiteSpace=wrap;strokeWidth=2;" vertex="1" parent="1">
          <mxGeometry x="316" y="540" width="60" height="30" as="geometry" />
        </mxCell>
        <mxCell id="00SEoHANSZacNniakZJs-12" value="Aggregation&#xa;        Validation" style="rhombus;strokeWidth=2;whiteSpace=wrap;" vertex="1" parent="1">
          <mxGeometry x="269" y="643" width="153" height="153" as="geometry" />
        </mxCell>
        <mxCell id="00SEoHANSZacNniakZJs-13" value="3.1 Hourly Processor&#xa;        - Cost calculation&#xa;        - Resource allocation&#xa;        - Hourly snapshots" style="whiteSpace=wrap;strokeWidth=2;" vertex="1" parent="1">
          <mxGeometry x="127" y="919" width="207" height="49" as="geometry" />
        </mxCell>
        <mxCell id="00SEoHANSZacNniakZJs-14" value="3.2 Real-time View&#xa;        - Running costs&#xa;        - Resource tracking&#xa;        - Alerts" style="whiteSpace=wrap;strokeWidth=2;" vertex="1" parent="1">
          <mxGeometry x="55" y="1157" width="197" height="49" as="geometry" />
        </mxCell>
        <mxCell id="00SEoHANSZacNniakZJs-15" value="3.3 Daily Reconciliation&#xa;        - Cost verification&#xa;        - Rate adjustments&#xa;        - Final daily costs" style="whiteSpace=wrap;strokeWidth=2;" vertex="1" parent="1">
          <mxGeometry x="302" y="1157" width="229" height="49" as="geometry" />
        </mxCell>
        <mxCell id="00SEoHANSZacNniakZJs-16" value="Billing DB&#xa;        - Hourly records&#xa;        - 13-month retention" style="shape=cylinder3;boundedLbl=1;backgroundOutline=1;size=10;strokeWidth=2;whiteSpace=wrap;" vertex="1" parent="1">
          <mxGeometry x="875" y="1043" width="83" height="64" as="geometry" />
        </mxCell>
        <mxCell id="00SEoHANSZacNniakZJs-17" value="Archive&#xa;        - Daily summaries&#xa;        - 7-year retention" style="shape=cylinder3;boundedLbl=1;backgroundOutline=1;size=10;strokeWidth=2;whiteSpace=wrap;" vertex="1" parent="1">
          <mxGeometry x="937" y="1281" width="70" height="61" as="geometry" />
        </mxCell>
        <mxCell id="00SEoHANSZacNniakZJs-18" value="UI Dashboard" style="whiteSpace=wrap;strokeWidth=2;" vertex="1" parent="1">
          <mxGeometry x="485" y="1541" width="154" height="49" as="geometry" />
        </mxCell>
        <mxCell id="00SEoHANSZacNniakZJs-19" value="Export API&#xa;        - Billing data&#xa;        - Usage reports" style="whiteSpace=wrap;strokeWidth=2;" vertex="1" parent="1">
          <mxGeometry x="877" y="1442" width="133" height="49" as="geometry" />
        </mxCell>
        <mxCell id="00SEoHANSZacNniakZJs-20" value="Audit: Collection&#xa;    - Data sources&#xa;    - Timestamps&#xa;    - Validation status" style="whiteSpace=wrap;strokeWidth=2;" vertex="1" parent="1">
          <mxGeometry x="1106" y="189" width="182" height="49" as="geometry" />
        </mxCell>
        <mxCell id="00SEoHANSZacNniakZJs-21" value="Audit: Processing&#xa;    - Calculation method&#xa;    - Rate cards used&#xa;    - Attribution rules" style="whiteSpace=wrap;strokeWidth=2;" vertex="1" parent="1">
          <mxGeometry x="601" y="1051" width="184" height="49" as="geometry" />
        </mxCell>
        <mxCell id="00SEoHANSZacNniakZJs-22" value="Audit: Storage&#xa;    - Write confirmation&#xa;    - Consistency check&#xa;    - Backup status" style="whiteSpace=wrap;strokeWidth=2;" vertex="1" parent="1">
          <mxGeometry x="1086" y="1442" width="164" height="49" as="geometry" />
        </mxCell>
        <mxCell id="00SEoHANSZacNniakZJs-23" value="Error Handler&#xa;    - Auto-retry&#xa;    - Alert generation&#xa;    - Fallback options" style="whiteSpace=wrap;strokeWidth=2;" vertex="1" parent="1">
          <mxGeometry x="637" y="919" width="158" height="49" as="geometry" />
        </mxCell>
        <mxCell id="00SEoHANSZacNniakZJs-24" value="" style="curved=1;startArrow=none;endArrow=block;exitX=0.03;exitY=1;entryX=0.05;entryY=0;rounded=0;" edge="1" parent="1" source="00SEoHANSZacNniakZJs-6" target="00SEoHANSZacNniakZJs-8">
          <mxGeometry relative="1" as="geometry">
            <Array as="points">
              <mxPoint x="497" y="119" />
            </Array>
          </mxGeometry>
        </mxCell>
        <mxCell id="00SEoHANSZacNniakZJs-25" value="" style="curved=1;startArrow=none;endArrow=block;exitX=0;exitY=0.81;entryX=0.82;entryY=0;rounded=0;" edge="1" parent="1" source="00SEoHANSZacNniakZJs-7" target="00SEoHANSZacNniakZJs-8">
          <mxGeometry relative="1" as="geometry">
            <Array as="points">
              <mxPoint x="644" y="119" />
            </Array>
          </mxGeometry>
        </mxCell>
        <mxCell id="00SEoHANSZacNniakZJs-26" value="Valid" style="curved=1;startArrow=none;endArrow=block;exitX=0.19;exitY=1;entryX=1;entryY=0.2;rounded=0;" edge="1" parent="1" source="00SEoHANSZacNniakZJs-8" target="00SEoHANSZacNniakZJs-10">
          <mxGeometry relative="1" as="geometry">
            <Array as="points">
              <mxPoint x="517" y="320" />
              <mxPoint x="517" y="356" />
            </Array>
          </mxGeometry>
        </mxCell>
        <mxCell id="00SEoHANSZacNniakZJs-27" value="Invalid" style="curved=1;startArrow=none;endArrow=block;exitX=0.6;exitY=1;entryX=0.19;entryY=0;rounded=0;" edge="1" parent="1" source="00SEoHANSZacNniakZJs-8" target="00SEoHANSZacNniakZJs-9">
          <mxGeometry relative="1" as="geometry">
            <Array as="points">
              <mxPoint x="603" y="320" />
              <mxPoint x="603" y="356" />
            </Array>
          </mxGeometry>
        </mxCell>
        <mxCell id="00SEoHANSZacNniakZJs-28" value="" style="curved=1;startArrow=none;endArrow=block;exitX=0.57;exitY=0;entryX=0.52;entryY=1;rounded=0;" edge="1" parent="1" source="00SEoHANSZacNniakZJs-9" target="00SEoHANSZacNniakZJs-6">
          <mxGeometry relative="1" as="geometry">
            <Array as="points">
              <mxPoint x="706" y="356" />
              <mxPoint x="706" y="119" />
            </Array>
          </mxGeometry>
        </mxCell>
        <mxCell id="00SEoHANSZacNniakZJs-29" value="" style="curved=1;startArrow=none;endArrow=block;exitX=0.5;exitY=0.99;entryX=0.49;entryY=0.01;rounded=0;" edge="1" parent="1" source="00SEoHANSZacNniakZJs-10" target="00SEoHANSZacNniakZJs-11">
          <mxGeometry relative="1" as="geometry">
            <Array as="points" />
          </mxGeometry>
        </mxCell>
        <mxCell id="00SEoHANSZacNniakZJs-30" value="" style="curved=1;startArrow=none;endArrow=block;exitX=-0.01;exitY=0.93;entryX=0;entryY=0.05;rounded=0;" edge="1" parent="1" source="00SEoHANSZacNniakZJs-11" target="00SEoHANSZacNniakZJs-12">
          <mxGeometry relative="1" as="geometry">
            <Array as="points">
              <mxPoint x="220" y="607" />
            </Array>
          </mxGeometry>
        </mxCell>
        <mxCell id="00SEoHANSZacNniakZJs-31" value="Valid" style="curved=1;startArrow=none;endArrow=block;exitX=0;exitY=0.94;entryX=0.5;entryY=0.01;rounded=0;" edge="1" parent="1" source="00SEoHANSZacNniakZJs-12" target="00SEoHANSZacNniakZJs-13">
          <mxGeometry relative="1" as="geometry">
            <Array as="points">
              <mxPoint x="230" y="821" />
            </Array>
          </mxGeometry>
        </mxCell>
        <mxCell id="00SEoHANSZacNniakZJs-32" value="Invalid" style="curved=1;startArrow=none;endArrow=block;exitX=0.5;exitY=0;entryX=0.49;entryY=1.01;rounded=0;" edge="1" parent="1" source="00SEoHANSZacNniakZJs-12" target="00SEoHANSZacNniakZJs-11">
          <mxGeometry relative="1" as="geometry">
            <Array as="points" />
          </mxGeometry>
        </mxCell>
        <mxCell id="00SEoHANSZacNniakZJs-33" value="" style="curved=1;startArrow=none;endArrow=block;exitX=0.31;exitY=1.01;entryX=0.5;entryY=0.01;rounded=0;" edge="1" parent="1" source="00SEoHANSZacNniakZJs-13" target="00SEoHANSZacNniakZJs-14">
          <mxGeometry relative="1" as="geometry">
            <Array as="points">
              <mxPoint x="154" y="993" />
            </Array>
          </mxGeometry>
        </mxCell>
        <mxCell id="00SEoHANSZacNniakZJs-34" value="" style="curved=1;startArrow=none;endArrow=block;exitX=0.99;exitY=1.01;entryX=0;entryY=0.43;rounded=0;" edge="1" parent="1" source="00SEoHANSZacNniakZJs-13" target="00SEoHANSZacNniakZJs-16">
          <mxGeometry relative="1" as="geometry">
            <Array as="points">
              <mxPoint x="434" y="993" />
              <mxPoint x="434" y="1018" />
            </Array>
          </mxGeometry>
        </mxCell>
        <mxCell id="00SEoHANSZacNniakZJs-35" value="" style="curved=1;startArrow=none;endArrow=block;exitX=0.5;exitY=1.01;entryX=0;entryY=0.31;rounded=0;" edge="1" parent="1" source="00SEoHANSZacNniakZJs-14" target="00SEoHANSZacNniakZJs-18">
          <mxGeometry relative="1" as="geometry">
            <Array as="points">
              <mxPoint x="154" y="1516" />
            </Array>
          </mxGeometry>
        </mxCell>
        <mxCell id="00SEoHANSZacNniakZJs-36" value="" style="curved=1;startArrow=none;endArrow=block;exitX=0.23;exitY=1.01;entryX=1;entryY=0.26;rounded=0;" edge="1" parent="1" source="00SEoHANSZacNniakZJs-16" target="00SEoHANSZacNniakZJs-15">
          <mxGeometry relative="1" as="geometry">
            <Array as="points">
              <mxPoint x="876" y="1132" />
            </Array>
          </mxGeometry>
        </mxCell>
        <mxCell id="00SEoHANSZacNniakZJs-37" value="" style="curved=1;startArrow=none;endArrow=block;exitX=0.5;exitY=1.01;entryX=0.5;entryY=0.01;rounded=0;" edge="1" parent="1" source="00SEoHANSZacNniakZJs-15" target="00SEoHANSZacNniakZJs-17">
          <mxGeometry relative="1" as="geometry">
            <Array as="points">
              <mxPoint x="417" y="1231" />
              <mxPoint x="972" y="1256" />
            </Array>
          </mxGeometry>
        </mxCell>
        <mxCell id="00SEoHANSZacNniakZJs-38" value="" style="curved=1;startArrow=none;endArrow=block;exitX=0.36;exitY=1.01;entryX=0.32;entryY=0;rounded=0;" edge="1" parent="1" source="00SEoHANSZacNniakZJs-16" target="00SEoHANSZacNniakZJs-19">
          <mxGeometry relative="1" as="geometry">
            <Array as="points">
              <mxPoint x="896" y="1132" />
              <mxPoint x="896" y="1417" />
            </Array>
          </mxGeometry>
        </mxCell>
        <mxCell id="00SEoHANSZacNniakZJs-39" value="" style="curved=1;startArrow=none;endArrow=block;exitX=0.5;exitY=1;entryX=0.61;entryY=0;rounded=0;" edge="1" parent="1" source="00SEoHANSZacNniakZJs-17" target="00SEoHANSZacNniakZJs-19">
          <mxGeometry relative="1" as="geometry">
            <Array as="points">
              <mxPoint x="972" y="1417" />
            </Array>
          </mxGeometry>
        </mxCell>
        <mxCell id="00SEoHANSZacNniakZJs-40" value="" style="curved=1;startArrow=none;endArrow=block;exitX=0.5;exitY=1;entryX=1;entryY=0.3;rounded=0;" edge="1" parent="1" source="00SEoHANSZacNniakZJs-19" target="00SEoHANSZacNniakZJs-18">
          <mxGeometry relative="1" as="geometry">
            <Array as="points">
              <mxPoint x="944" y="1516" />
            </Array>
          </mxGeometry>
        </mxCell>
        <mxCell id="00SEoHANSZacNniakZJs-41" value="" style="curved=1;startArrow=none;endArrow=block;exitX=0.62;exitY=1;entryX=0;entryY=0.11;rounded=0;" edge="1" parent="1" source="00SEoHANSZacNniakZJs-6" target="00SEoHANSZacNniakZJs-20">
          <mxGeometry relative="1" as="geometry">
            <Array as="points">
              <mxPoint x="749" y="119" />
            </Array>
          </mxGeometry>
        </mxCell>
        <mxCell id="00SEoHANSZacNniakZJs-42" value="" style="curved=1;startArrow=none;endArrow=block;exitX=0.5;exitY=1;entryX=0.14;entryY=0;rounded=0;" edge="1" parent="1" source="00SEoHANSZacNniakZJs-7" target="00SEoHANSZacNniakZJs-20">
          <mxGeometry relative="1" as="geometry">
            <Array as="points">
              <mxPoint x="944" y="119" />
            </Array>
          </mxGeometry>
        </mxCell>
        <mxCell id="00SEoHANSZacNniakZJs-43" value="" style="curved=1;startArrow=none;endArrow=block;exitX=0.82;exitY=1.01;entryX=0;entryY=0.17;rounded=0;" edge="1" parent="1" source="00SEoHANSZacNniakZJs-13" target="00SEoHANSZacNniakZJs-21">
          <mxGeometry relative="1" as="geometry">
            <Array as="points">
              <mxPoint x="365" y="993" />
              <mxPoint x="365" y="1018" />
            </Array>
          </mxGeometry>
        </mxCell>
        <mxCell id="00SEoHANSZacNniakZJs-44" value="" style="curved=1;startArrow=none;endArrow=block;exitX=1;exitY=0.7;entryX=0.31;entryY=0;rounded=0;" edge="1" parent="1" source="00SEoHANSZacNniakZJs-16" target="00SEoHANSZacNniakZJs-22">
          <mxGeometry relative="1" as="geometry">
            <Array as="points">
              <mxPoint x="1106" y="1132" />
              <mxPoint x="1106" y="1417" />
            </Array>
          </mxGeometry>
        </mxCell>
        <mxCell id="00SEoHANSZacNniakZJs-45" value="" style="curved=1;startArrow=none;endArrow=block;exitX=1;exitY=0.66;entryX=0.53;entryY=0;rounded=0;" edge="1" parent="1" source="00SEoHANSZacNniakZJs-17" target="00SEoHANSZacNniakZJs-22">
          <mxGeometry relative="1" as="geometry">
            <Array as="points">
              <mxPoint x="1177" y="1367" />
              <mxPoint x="1177" y="1417" />
            </Array>
          </mxGeometry>
        </mxCell>
        <mxCell id="00SEoHANSZacNniakZJs-46" value="Critical Error" style="curved=1;startArrow=none;endArrow=block;exitX=1;exitY=0.74;entryX=0.5;entryY=0.01;rounded=0;" edge="1" parent="1" source="00SEoHANSZacNniakZJs-8" target="00SEoHANSZacNniakZJs-23">
          <mxGeometry relative="1" as="geometry">
            <Array as="points">
              <mxPoint x="808" y="320" />
              <mxPoint x="808" y="821" />
              <mxPoint x="716" y="858" />
            </Array>
          </mxGeometry>
        </mxCell>
        <mxCell id="00SEoHANSZacNniakZJs-47" value="Critical Error" style="curved=1;startArrow=none;endArrow=block;exitX=0.5;exitY=1;entryX=0.72;entryY=0.01;rounded=0;" edge="1" parent="1" source="00SEoHANSZacNniakZJs-12" target="00SEoHANSZacNniakZJs-23">
          <mxGeometry relative="1" as="geometry">
            <Array as="points">
              <mxPoint x="346" y="821" />
              <mxPoint x="785" y="858" />
              <mxPoint x="785" y="894" />
            </Array>
          </mxGeometry>
        </mxCell>
      </root>
    </mxGraphModel>
  </diagram>
</mxfile>
